<svg xmlns="http://www.w3.org/2000/svg" xmlns:xlink="http://www.w3.org/1999/xlink" fill="none" version="1.1" width="512" height="512" viewBox="0 0 512 512"><defs><clipPath id="master_svg0_25_97"><rect x="0" y="0" width="512" height="512" rx="0"/></clipPath><clipPath id="master_svg1_25_11"><rect x="11" y="39" width="490" height="435" rx="0"/></clipPath></defs><g style="mix-blend-mode:passthrough" clip-path="url(#master_svg0_25_97)"><g clip-path="url(#master_svg1_25_11)"><g><path d="M51.4931,294.222767578125L205.214,437.551767578125C211.594,443.498767578125,220.016,446.812767578125,228.778,446.812767578125C237.54,446.812767578125,245.962,443.498767578125,252.342,437.551767578125L254.554,435.512767578125C238.306,411.638767578125,228.778,382.751767578125,228.778,351.655767578125C228.778,269.073767578125,295.812,202.124767578125,378.5,202.124767578125C402.575,202.124767578125,425.288,207.817767578125,445.45,217.842767578125C446.215,212.320767578125,446.556,206.797767578125,446.556,201.19076757812502L446.556,196.262767578125C446.556,136.874967578125,403.595,86.238267578125,344.983,76.467747578125C306.191,70.010717578125,266.719,82.669897578125,238.986,110.36716757812499L228.778,120.562467578125L218.569,110.36716757812499C190.837,82.669897578125,151.365,70.010717578125,112.573,76.467747578125C53.9601,86.238267578125,11,136.874967578125,11,196.262767578125L11,201.19076757812502C11,236.448767578125,25.6319,270.17876757812496,51.4931,294.222767578125ZM378.5,473.999767578125C446.13,473.999767578125,501,419.199767578125,501,351.655767578125C501,284.112767578125,446.13,229.312767578125,378.5,229.312767578125C310.87,229.312767578125,256,284.112767578125,256,351.655767578125C256,419.199767578125,310.87,473.999767578125,378.5,473.999767578125Z" fill="#2B9939" fill-opacity="1"/></g><g style="mix-blend-mode:passthrough"><path d="M322,415L441,415L441,293.5L419,293.5L419,393L344.5,393L344.5,293.5L322,293.5L322,415Z" fill="#FFFFFF" fill-opacity="1"/></g></g></g></svg>